<svg width="15" height="13" viewBox="0 0 15 13" fill="none" xmlns="http://www.w3.org/2000/svg">
<path d="M14.6689 8.70241L10.2092 6.63041C10.1306 6.59274 10.0494 6.57516 9.96824 6.57516C9.75261 6.57516 9.54713 6.69571 9.45073 6.90165C9.31628 7.18294 9.44059 7.522 9.7247 7.65259L12.9819 9.16704L12.2133 9.4634L7.9794 7.60488C7.69274 7.4793 7.35535 7.60739 7.22597 7.8937C7.09913 8.1775 7.22851 8.51153 7.5177 8.63962L11.9672 10.5936C12.1067 10.6564 12.2666 10.6589 12.4061 10.6036L14.6359 9.73966C14.8465 9.65678 14.9911 9.45837 14.9987 9.23234C15.0063 9.00881 14.8769 8.79784 14.6689 8.70241Z" fill="#8529CD"/>
<path d="M2.83137 5.47007C3.26516 5.47007 3.67358 5.3671 4.03888 5.19129L5.61422 5.90456C5.76135 5.97237 5.93385 5.97489 6.08352 5.90707L12.2555 3.18962L12.9151 3.40812L4.47013 7.45668C4.45998 7.4617 4.44984 7.46923 4.44222 7.47426C4.42954 7.48179 4.41686 7.48681 4.40417 7.49435C4.3991 7.49937 4.39403 7.5044 4.38895 7.50691C4.37373 7.51695 4.35851 7.52951 4.34583 7.54207C4.33061 7.55463 4.31539 7.56718 4.3027 7.58225C4.29002 7.59481 4.27987 7.60737 4.26972 7.61993C4.25704 7.63499 4.24436 7.65257 4.23421 7.67016C4.2266 7.68271 4.21899 7.69778 4.21138 7.71034C4.20123 7.72792 4.19362 7.74801 4.18601 7.7681C4.18094 7.78317 4.17586 7.79824 4.17333 7.81331C4.16825 7.8334 4.16318 7.85098 4.15811 7.87108C4.15557 7.88866 4.15303 7.90373 4.15303 7.92131C4.1505 7.9414 4.1505 7.95898 4.1505 7.97907C4.1505 7.99665 4.15303 8.01423 4.15557 8.03432C4.15811 8.0519 4.16064 8.06949 4.16318 8.08707C4.16825 8.10716 4.17333 8.12474 4.18094 8.14483C4.18601 8.16241 4.19108 8.17748 4.19869 8.19255C4.20123 8.20008 4.20377 8.20762 4.2063 8.21515C4.21391 8.23022 4.22406 8.24027 4.23167 8.25534C4.23675 8.26287 4.23928 8.27292 4.24436 8.28045C4.68576 8.94098 4.59443 9.82754 4.02873 10.3876C3.70909 10.7066 3.28545 10.8799 2.8339 10.8799C2.37982 10.8799 1.95618 10.7041 1.63401 10.3876C0.974442 9.73462 0.974443 8.67225 1.63147 8.01926C2.03228 7.62746 2.59798 7.45416 3.15354 7.55965C3.45542 7.61993 3.76237 7.419 3.82325 7.1126C3.88413 6.8062 3.68119 6.50984 3.3717 6.44956C3.19159 6.4144 3.01148 6.39682 2.83137 6.39682C2.08809 6.39682 1.36764 6.68564 0.827309 7.21808C-0.276192 8.3131 -0.276192 10.0938 0.829845 11.1838C1.36257 11.7087 2.07287 12.0025 2.83137 12.0025C3.58733 12.0025 4.30016 11.7112 4.83543 11.1812C5.62944 10.3977 5.86282 9.23232 5.48738 8.22269L14.6756 3.8175C14.8836 3.71704 15.0105 3.50105 14.9952 3.2725C14.98 3.04395 14.8253 2.84554 14.6071 2.77271L12.4052 2.04437C12.3468 2.02428 12.286 2.01423 12.2251 2.01423C12.1464 2.01423 12.0678 2.0293 11.9917 2.06195L5.85268 4.76685L5.01807 4.39012C5.37322 3.93052 5.58885 3.35538 5.58885 2.73252C5.58885 1.22562 4.3509 1.33064e-07 2.82883 0C1.30676 -1.33064e-07 0.0688113 1.22813 0.0688112 2.73504C0.0688111 4.24194 1.3093 5.47007 2.83137 5.47007ZM2.83137 1.13269C3.72432 1.13269 4.44984 1.85098 4.44984 2.73504C4.44984 3.61909 3.72432 4.33989 2.83137 4.33989C1.93842 4.33989 1.2129 3.61909 1.2129 2.73504C1.2129 1.85098 1.93842 1.13269 2.83137 1.13269Z" fill="#8529CD"/>
</svg>
