<svg width="39" height="29" viewBox="0 0 39 29" fill="none" xmlns="http://www.w3.org/2000/svg">
<path fill-rule="evenodd" clip-rule="evenodd" d="M24.931 6.42857H9.06897C8.68808 6.42857 8.37931 6.74837 8.37931 7.14286V22.8571C8.37931 23.2516 8.68808 23.5714 9.06897 23.5714H24.931C25.3119 23.5714 25.6207 23.2516 25.6207 22.8571V7.14286C25.6207 6.74837 25.3119 6.42857 24.931 6.42857ZM9.06897 5C7.92631 5 7 5.95939 7 7.14286V22.8571C7 24.0406 7.92631 25 9.06897 25H24.931C26.0737 25 27 24.0406 27 22.8571V7.14286C27 5.95939 26.0737 5 24.931 5H9.06897Z" fill="#4E5A66"/>
<path fill-rule="evenodd" clip-rule="evenodd" d="M36 1.6H3C2.2268 1.6 1.6 2.2268 1.6 3V26C1.6 26.7732 2.2268 27.4 3 27.4H36C36.7732 27.4 37.4 26.7732 37.4 26V3C37.4 2.2268 36.7732 1.6 36 1.6ZM3 0C1.34315 0 0 1.34315 0 3V26C0 27.6569 1.34315 29 3 29H36C37.6569 29 39 27.6569 39 26V3C39 1.34315 37.6569 0 36 0H3Z" fill="#4E5A66"/>
</svg>
