<svg width="39" height="30" viewBox="0 0 39 30" fill="none" xmlns="http://www.w3.org/2000/svg">
<path fill-rule="evenodd" clip-rule="evenodd" d="M36.4565 1.73228H2.54348C2.07524 1.73228 1.69565 2.12006 1.69565 2.59842V24.8031C1.69565 25.2814 2.07524 25.6692 2.54348 25.6692H36.4565C36.9248 25.6692 37.3043 25.2814 37.3043 24.8031V2.59842C37.3043 2.12006 36.9248 1.73228 36.4565 1.73228ZM2.54348 0C1.13875 0 0 1.16335 0 2.59842V24.8031C0 26.2382 1.13875 27.4015 2.54348 27.4015H36.4565C37.8612 27.4015 39 26.2382 39 24.8031V2.59842C39 1.16335 37.8612 0 36.4565 0H2.54348Z" fill="#4E5A66"/>
<path fill-rule="evenodd" clip-rule="evenodd" d="M14.6128 30L19.0357 26.4567L23.4586 30H14.6128Z" fill="#4E5A66"/>
</svg>
