<svg width="57" height="57" viewBox="0 0 57 57" fill="none" xmlns="http://www.w3.org/2000/svg">
<path fill-rule="evenodd" clip-rule="evenodd" d="M18.5 11.5V44.5H23.5V11.5H18.5ZM18 10C17.4477 10 17 10.4477 17 11V45C17 45.5523 17.4477 46 18 46H24C24.5523 46 25 45.5523 25 45V11C25 10.4477 24.5523 10 24 10H18Z" fill="#4E5A66"/>
<path fill-rule="evenodd" clip-rule="evenodd" d="M34.5 11.5V44.5H39.5V11.5H34.5ZM34 10C33.4477 10 33 10.4477 33 11V45C33 45.5523 33.4477 46 34 46H40C40.5523 46 41 45.5523 41 45V11C41 10.4477 40.5523 10 40 10H34Z" fill="#4E5A66"/>
</svg>
