<svg width="39" height="30" viewBox="0 0 39 30" fill="none" xmlns="http://www.w3.org/2000/svg">
<path d="M20.344 5.02019C20.8221 5.02019 21.2097 4.65767 21.2097 4.21047C21.2097 3.76328 20.8221 3.40076 20.344 3.40076C19.8659 3.40076 19.4783 3.76328 19.4783 4.21047C19.4783 4.65767 19.8659 5.02019 20.344 5.02019Z" fill="#4E5A66"/>
<path d="M35.5372 30H3.41953C1.51498 30 0 28.583 0 26.8421V8.42105C0 6.68016 1.51498 5.22267 3.41953 5.22267H3.46282C3.76582 5.10121 4.28524 4.17004 4.63152 3.56275C5.5838 1.98381 6.7525 0 8.87347 0H21.1665C23.2875 0 24.4562 1.98381 25.4084 3.56275C25.7547 4.17004 26.3174 5.06073 26.5771 5.22267H35.5805C37.4417 5.22267 39 6.63968 39 8.42105V26.8016C38.9567 28.583 37.4417 30 35.5372 30ZM3.41953 6.88259C2.51054 6.88259 1.73141 7.57085 1.73141 8.46154V26.8421C1.73141 27.6923 2.46726 28.4211 3.41953 28.4211H35.5805C36.4895 28.4211 37.2686 27.7328 37.2686 26.8421V8.42105C37.2686 7.57085 36.5327 6.84211 35.5805 6.84211H26.4906C25.3219 6.84211 24.6293 5.7085 23.8502 4.37247C23.071 3.07692 22.2053 1.61943 21.1232 1.61943H8.83019C7.74806 1.61943 6.88235 3.07692 6.10322 4.37247C5.32409 5.7085 4.63152 6.84211 3.46282 6.84211H3.41953V6.88259Z" fill="#4E5A66"/>
</svg>
